<?xml version="1.0" encoding="iso-8859-1"?>
<!-- Uploaded to: SVG Repo, www.svgrepo.com, Generator: SVG Repo Mixer Tools -->
<!DOCTYPE svg PUBLIC "-//W3C//DTD SVG 1.1//EN" "http://www.w3.org/Graphics/SVG/1.1/DTD/svg11.dtd">
<svg fill="#000000" version="1.1" id="Capa_1" xmlns="http://www.w3.org/2000/svg" xmlns:xlink="http://www.w3.org/1999/xlink" 
	 width="800px" height="800px" viewBox="0 0 124.79 124.79"
	 xml:space="preserve">
<g>
	<g>
		<circle cx="74.321" cy="24.514" r="12.597"/>
		<path d="M99.017,16.638c-2.59-0.762-5.31,0.72-6.072,3.312c-3.568,12.132-8.499,19.962-13.881,22.047
			c-1.319,0.511-2.551,0.62-3.604,0.546c-0.94-1.808-2.296-3.421-3.874-4.655c-0.009-0.007-0.02-0.011-0.026-0.018l-4.096,1.638
			l-1.539-4.178c-1.911-0.365-3.954-0.346-5.883,0.094c-0.703-0.737-1.375-1.703-1.827-2.967C56.272,27.02,58.974,18.17,65.82,7.54
			c1.463-2.271,0.808-5.297-1.463-6.76c-2.271-1.463-5.298-0.807-6.76,1.463c-8.881,13.791-11.737,25.164-8.485,33.803
			c0.843,2.242,2,4.034,3.248,5.478L40.924,66.512c-0.728,1.59-0.986,3.225-0.877,4.823c-0.006,0.016-0.014,0.03-0.021,0.045
			L22.65,116.478c-1.147,2.979,0.336,6.324,3.315,7.473c0.684,0.263,1.386,0.388,2.077,0.388c2.321,0,4.51-1.408,5.395-3.704
			l14.85-38.542c1.425,0.618,2.926,1.012,4.427,1.16c3.978,6.739,9.736,17.017,10.861,20.46c1.091,3.339,0.906,10.818,0.534,14.746
			c-0.304,3.178,2.025,6,5.203,6.304c0.188,0.019,0.373,0.027,0.558,0.027c2.943,0,5.461-2.24,5.747-5.23
			c0.123-1.284,1.136-12.73-1.055-19.435c-1.571-4.815-7.843-15.825-11.076-21.354c0.328-0.476,0.634-0.976,0.886-1.527
			l11.387-24.885c0.09,0.001,0.177,0.007,0.268,0.007c1.907,0,4.024-0.308,6.27-1.134c8.663-3.188,15.401-12.784,20.031-28.52
			C103.09,20.119,101.607,17.399,99.017,16.638z"/>
	</g>
</g>
</svg>