<?xml version="1.0" ?>
<!DOCTYPE svg  PUBLIC '-//W3C//DTD SVG 1.1//EN'  'http://www.w3.org/Graphics/SVG/1.1/DTD/svg11.dtd'>
<!-- Uploaded to: SVG Repo, www.svgrepo.com, Generator: SVG Repo Mixer Tools -->
<svg fill="#000000" width="800px" height="800px" viewBox="0 0 512 512" version="1.1" xml:space="preserve" xmlns="http://www.w3.org/2000/svg" xmlns:xlink="http://www.w3.org/1999/xlink">
<g id="_x33_66_x2C__analytics_x2C__processing_x2C__dashboard_x2C__data_x2C__stats">
<g>
<path d="M382.793,142.771h-8.834v65.588h8.834V142.771z M342.199,105.811h-8.834    v102.548h8.834V105.811z M301.605,120.719h-8.833v87.64h8.833V120.719z M261.012,160.938h-8.833v47.421h8.833V160.938z     M220.417,105.811h-8.832v102.548h8.832V105.811z M179.825,142.771h-8.833v65.588h8.833V142.771z M139.262,167.797h-8.863v40.562    h8.863V167.797z M445.687,64.025v217.971c0,2.1-1.723,3.822-3.819,3.822H71.356c-2.13,0-3.854-1.723-3.854-3.822V64.025    c0-2.129,1.723-3.852,3.854-3.852h370.511C443.964,60.174,445.687,61.896,445.687,64.025z M456.056,50.025    c-3.478-3.508-8.302-5.67-13.626-5.67H71.637c-5.199,0-9.96,2.1-13.436,5.45l-0.189,0.22c-3.477,3.477-5.668,8.301-5.668,13.594    v267.021c0,5.293,2.191,10.116,5.668,13.625c3.509,3.477,8.333,5.639,13.625,5.639H442.43c5.324,0,10.148-2.162,13.626-5.639    c3.508-3.509,5.668-8.332,5.668-13.625V63.619C461.724,58.326,459.563,53.502,456.056,50.025z M370.105,135.064h16.539    c2.131,0,3.854,1.723,3.854,3.854v73.293c0,2.099-1.723,3.853-3.854,3.853h-16.539c-2.128,0-3.852-1.754-3.852-3.853v-73.293    C366.254,136.787,367.978,135.064,370.105,135.064z M329.514,98.105h16.539c2.128,0,3.852,1.722,3.852,3.852v110.254    c0,2.099-1.724,3.853-3.852,3.853h-16.539c-2.131,0-3.854-1.754-3.854-3.853V101.957C325.66,99.827,327.383,98.105,329.514,98.105    z M288.919,113.014h16.538c2.131,0,3.854,1.723,3.854,3.854v95.344c0,2.099-1.723,3.853-3.854,3.853h-16.538    c-2.13,0-3.852-1.754-3.852-3.853v-95.344C285.067,114.736,286.789,113.014,288.919,113.014z M248.327,153.231h16.539    c2.128,0,3.852,1.724,3.852,3.853v55.127c0,2.099-1.724,3.853-3.852,3.853h-16.539c-2.13,0-3.854-1.754-3.854-3.853v-55.127    C244.473,154.955,246.196,153.231,248.327,153.231z M207.732,98.105h16.539c2.13,0,3.854,1.722,3.854,3.852v110.254    c0,2.099-1.723,3.853-3.854,3.853h-16.539c-2.13,0-3.852-1.754-3.852-3.853V101.957C203.88,99.827,205.602,98.105,207.732,98.105z     M167.14,135.064h16.537c2.13,0,3.854,1.723,3.854,3.854v73.293c0,2.099-1.723,3.853-3.854,3.853H167.14    c-2.099,0-3.854-1.754-3.854-3.853v-73.293C163.286,136.787,165.041,135.064,167.14,135.064z M126.545,160.092h16.539    c2.13,0,3.852,1.723,3.852,3.852v48.268c0,2.099-1.721,3.853-3.852,3.853h-16.539c-2.099,0-3.852-1.754-3.852-3.853v-48.268    C122.693,161.814,124.446,160.092,126.545,160.092z M101.236,221.889h310.717c2.131,0,3.852,1.725,3.852,3.854v33.482    c0,2.1-1.721,3.822-3.852,3.822h-20.014h-0.096h-0.093h-16.694h-0.127h-0.093h-16.694h-0.096h-0.124h-16.694h-0.096h-0.092    h-16.727h-0.096h-0.092h-16.695h-0.126h-0.093h-16.695h-0.095h-0.125h-16.694h-0.095h-0.093h-16.727h-0.095h-0.093h-16.695h-0.126    h-0.093h-16.695h-0.095h-0.125h-16.695h-0.188h-16.727h-0.188h-16.695h-0.219h-16.695h-0.219h-16.695h-0.188H121.44h-0.095h-0.093    h-20.017c-2.128,0-3.852-1.723-3.852-3.822v-33.482C97.385,223.613,99.108,221.889,101.236,221.889z M438.014,278.145V67.879    H75.208v210.266H438.014z M301.543,357.609h-89.019l-17.792,67.593h124.601L301.543,357.609z M379.973,432.907h-190.22h-0.093    h-55.535v10.618h245.847V432.907z M46.299,468.646c-2.13,0-3.854-1.723-3.854-3.821c0-2.13,1.723-3.853,3.854-3.853h284.844    c2.13,0,3.853,1.723,3.853,3.853c0,2.099-1.723,3.821-3.853,3.821H46.299z M213.089,485.999c-2.13,0-3.854-1.724-3.854-3.854    s1.723-3.853,3.854-3.853h197.109c2.131,0,3.854,1.723,3.854,3.853s-1.723,3.854-3.854,3.854H213.089z M430.371,485.999    c-2.099,0-3.821-1.724-3.821-3.854s1.723-3.853,3.821-3.853h24.651c2.128,0,3.852,1.723,3.852,3.853s-1.724,3.854-3.852,3.854    H430.371z M35.084,485.465c-2.128,0-3.852-1.722-3.852-3.852s1.723-3.854,3.852-3.854h93.404c2.099,0,3.852,1.724,3.852,3.854    s-1.753,3.852-3.852,3.852H35.084z M451.169,33.707c-2.131,0-3.854-1.724-3.854-3.854s1.723-3.852,3.854-3.852    c8.112,0,15.505,3.35,20.892,8.707c5.355,5.387,8.707,12.779,8.707,20.892v48.36c0,2.131-1.753,3.854-3.852,3.854    c-2.13,0-3.854-1.723-3.854-3.854v-48.36c0-6.014-2.474-11.495-6.421-15.442C462.664,36.181,457.182,33.707,451.169,33.707z     M408.1,229.595H105.09v25.778h12.404v-13.594c0-2.13,1.721-3.853,3.852-3.853s3.854,1.723,3.854,3.853v13.594h9.209v-13.594    c0-2.13,1.721-3.853,3.852-3.853s3.854,1.723,3.854,3.853v13.594h9.207v-13.594c0-2.13,1.723-3.853,3.854-3.853    c2.099,0,3.854,1.723,3.854,3.853v13.594h9.177v-13.594c0-2.13,1.753-3.853,3.852-3.853c2.13,0,3.854,1.723,3.854,3.853v13.594    h9.209v-13.594c0-2.13,1.721-3.853,3.852-3.853s3.854,1.723,3.854,3.853v13.594h9.209v-13.594c0-2.13,1.721-3.853,3.852-3.853    s3.854,1.723,3.854,3.853v13.594h9.209v-13.594c0-2.13,1.721-3.853,3.852-3.853c2.099,0,3.854,1.723,3.854,3.853v13.594h9.177    v-13.594c0-2.13,1.753-3.853,3.852-3.853c2.13,0,3.854,1.723,3.854,3.853v13.594h9.209v-13.594c0-2.13,1.722-3.853,3.852-3.853    s3.854,1.723,3.854,3.853v13.594h9.209v-13.594c0-2.13,1.722-3.853,3.852-3.853s3.854,1.723,3.854,3.853v13.594h9.209v-13.594    c0-2.13,1.721-3.853,3.852-3.853c2.099,0,3.854,1.723,3.854,3.853v13.594h9.177v-13.594c0-2.13,1.753-3.853,3.853-3.853    c2.13,0,3.853,1.723,3.853,3.853v13.594h9.209v-13.594c0-2.13,1.723-3.853,3.852-3.853c2.131,0,3.854,1.723,3.854,3.853v13.594    h9.209v-13.594c0-2.13,1.723-3.853,3.852-3.853c2.131,0,3.854,1.723,3.854,3.853v13.594h9.209v-13.594    c0-2.13,1.722-3.853,3.852-3.853c2.1,0,3.854,1.723,3.854,3.853v13.594h9.209v-13.594c0-2.13,1.722-3.853,3.82-3.853    c2.131,0,3.854,1.723,3.854,3.853v13.594h9.209v-13.594c0-2.13,1.722-3.853,3.852-3.853c2.131,0,3.854,1.723,3.854,3.853v13.594    H408.1V229.595z" style="fill-rule:evenodd;clip-rule:evenodd;"/>
</g>
</g>
<g id="Layer_1"/>
</svg>